PathFileType	4	(X/Y/Z)
DataRate	CameraRate	NumFrames	NumMarkers	Units	OrigDataRate	OrigDataStartFrame	OrigNumFrames	
	120.0	120.0	4	39	mm	120.0	145	231
Frame#	Time	midhip	hip_r	hip_l	knee_r	knee_l	ankle_r	ankle_l	midasis	asis_r	asis_l	psis_r	psis_l	epicondLat_r	epicondLat_l	epicondMed_r	epicondMed_l	malleolusLat_r	malleolusLat_l	malleolusMedv_r	malleolusMedv_l	heel_r	heel_l	sternalnotch	xyphoidprocess	neck	subclavicle_r	subclavicle_l	toe_r	toe_l	thighwand_r	thighwand_l	upperleg1_r	upperleg1_l	upperleg2_r	upperleg2_l	shankwand_r	shankwand_l	lowerleg1_r	lowerleg1_l
	X1	Y1	Z1	X2	Y2	Z2	X3	Y3	Z3	X4	Y4	Z4	X5	Y5	Z5	X6	Y6	Z6	X7	Y7	Z7	X8	Y8	Z8	X9	Y9	Z9	X10	Y10	Z10	X11	Y11	Z11	X12	Y12	Z12	X13	Y13	Z13	X14	Y14	Z14	X15	Y15	Z15	X16	Y16	Z16	X17	Y17	Z17	X18	Y18	Z18	X19	Y19	Z19	X20	Y20	Z20	X21	Y21	Z21	X22	Y22	Z22	X23	Y23	Z23	X24	Y24	Z24	X25	Y25	Z25	X26	Y26	Z26	X27	Y27	Z27	X28	Y28	Z28	X29	Y29	Z29	X30	Y30	Z30	X31	Y31	Z31	X32	Y32	Z32	X33	Y33	Z33	X34	Y34	Z34	X35	Y35	Z35	X36	Y36	Z36	X37	Y37	Z37	X38	Y38	Z38	X39	Y39	Z39

	145	1.20833	1361.132	701.583	-226.738	1358.924	703.952	-163.907	1363.341	699.213	-289.569	1340.137	374.341	-139.186	1341.535	377.998	-307.998	1355.200	57.507	-109.543	1336.400	59.295	-343.598	1436.424	753.353	-226.043	1433.146	756.869	-132.794	1439.702	749.837	-319.292	1298.256	816.455	-214.236	1299.081	809.442	-268.652	1338.183	378.226	-88.873	1341.382	380.872	-357.915	1337.332	375.988	-189.383	1342.907	366.364	-254.862	1345.217	60.015	-77.663	1330.395	63.162	-377.351	1351.833	65.251	-137.232	1332.641	60.312	-313.784	1299.887	38.974	-112.482	1283.330	40.831	-338.545	1399.360	1115.330	-243.846	1452.417	981.180	-239.923	1323.971	1149.856	-244.188	1398.342	1127.849	-183.593	1404.381	1127.439	-298.818	1451.422	40.074	-99.207	1432.128	38.665	-357.453	1341.924	485.079	-20.757	1477.767	475.741	-334.297	1381.786	538.212	-91.235	1413.558	529.995	-273.709	1386.356	453.761	-98.691	1396.880	443.834	-274.700	1317.189	168.115	-15.044	1420.808	163.223	-371.728	1329.592	219.347	-78.805	1360.505	216.564	-343.975
	146	1.21667	1361.156	701.579	-226.752	1358.961	703.943	-163.920	1363.351	699.214	-289.584	1340.154	374.326	-139.188	1341.520	378.006	-308.002	1355.181	57.516	-109.543	1336.395	59.279	-343.564	1436.430	753.375	-226.071	1433.171	756.884	-132.819	1439.688	749.866	-319.323	1298.087	816.469	-214.280	1299.078	809.437	-268.635	1338.213	378.212	-88.875	1341.356	380.879	-357.919	1337.430	375.960	-189.373	1342.924	366.389	-254.821	1345.206	60.027	-77.661	1330.382	63.142	-377.315	1351.819	65.246	-137.206	1332.621	60.319	-313.755	1299.876	38.965	-112.481	1283.333	40.821	-338.534	1399.390	1115.371	-243.826	1452.534	981.255	-239.911	1323.984	1149.847	-244.166	1398.392	1127.896	-183.568	1404.378	1127.476	-298.810	1451.419	40.097	-99.199	1432.118	38.674	-357.446	1341.992	485.088	-20.760	1477.741	475.757	-334.350	1381.749	538.214	-91.234	1413.555	530.036	-273.726	1386.409	453.791	-98.697	1396.878	443.849	-274.698	1317.167	168.132	-15.023	1420.785	163.238	-371.743	1329.590	219.348	-78.781	1360.486	216.577	-343.980
	147	1.22500	1361.185	701.559	-226.765	1359.001	703.918	-163.933	1363.369	699.199	-289.597	1340.175	374.305	-139.194	1341.505	378.010	-308.009	1355.199	57.517	-109.544	1336.393	59.264	-343.536	1436.437	753.387	-226.096	1433.196	756.889	-132.844	1439.678	749.885	-319.347	1297.741	816.512	-214.385	1299.076	809.434	-268.624	1338.245	378.191	-88.881	1341.332	380.883	-357.926	1337.500	375.976	-189.380	1342.920	366.415	-254.749	1345.231	60.029	-77.660	1330.374	63.123	-377.287	1351.811	65.256	-137.179	1332.622	60.327	-313.727	1299.868	38.960	-112.478	1283.333	40.819	-338.526	1399.406	1115.376	-243.803	1452.559	981.263	-239.912	1324.004	1149.848	-244.147	1398.441	1127.904	-183.548	1404.363	1127.479	-298.786	1451.416	40.107	-99.192	1432.106	38.671	-357.441	1342.055	485.093	-20.765	1477.711	475.765	-334.401	1381.777	538.218	-91.226	1413.566	530.055	-273.732	1386.464	453.825	-98.699	1396.871	443.854	-274.678	1317.154	168.144	-15.010	1420.762	163.241	-371.755	1329.620	219.364	-78.765	1360.475	216.560	-343.956
	148	1.23333	1361.194	701.559	-226.778	1359.019	703.914	-163.945	1363.369	699.205	-289.610	1340.196	374.289	-139.201	1341.491	378.012	-308.016	1355.245	57.512	-109.542	1336.397	59.260	-343.524	1436.445	753.390	-226.115	1433.217	756.884	-132.867	1439.672	749.896	-319.363	1297.755	816.508	-214.385	1299.077	809.434	-268.618	1338.273	378.175	-88.888	1341.311	380.885	-357.933	1337.541	375.989	-189.425	1342.921	366.404	-254.740	1345.281	60.024	-77.656	1330.374	63.116	-377.274	1351.813	65.255	-137.192	1332.642	60.323	-313.714	1299.866	38.962	-112.474	1283.330	40.824	-338.522	1399.392	1115.347	-243.817	1452.485	981.209	-239.949	1324.025	1149.846	-244.134	1398.427	1127.862	-183.569	1404.359	1127.459	-298.787	1451.409	40.102	-99.184	1432.096	38.659	-357.437	1342.112	485.096	-20.771	1477.681	475.762	-334.445	1381.850	538.200	-91.241	1413.558	530.035	-273.747	1386.522	453.814	-98.730	1396.866	443.852	-274.689	1317.152	168.154	-15.002	1420.742	163.234	-371.764	1329.670	219.359	-78.790	1360.453	216.535	-343.942
